<svg id="visual" viewBox="0 0 540 1100" width="540" height="1100" xmlns="http://www.w3.org/2000/svg" xmlns:xlink="http://www.w3.org/1999/xlink" version="1.1"><rect x="0" y="0" width="540" height="1100" fill="#002233"></rect><path d="M118 0L137.3 20.3C156.7 40.7 195.3 81.3 208.3 122C221.3 162.7 208.7 203.3 184.5 244.2C160.3 285 124.7 326 132.5 366.8C140.3 407.7 191.7 448.3 200.7 489C209.7 529.7 176.3 570.3 172.7 611C169 651.7 195 692.3 206.2 733.2C217.3 774 213.7 815 199.7 855.8C185.7 896.7 161.3 937.3 150.8 978C140.3 1018.7 143.7 1059.3 145.3 1079.7L147 1100L0 1100L0 1079.7C0 1059.3 0 1018.7 0 978C0 937.3 0 896.7 0 855.8C0 815 0 774 0 733.2C0 692.3 0 651.7 0 611C0 570.3 0 529.7 0 489C0 448.3 0 407.7 0 366.8C0 326 0 285 0 244.2C0 203.3 0 162.7 0 122C0 81.3 0 40.7 0 20.3L0 0Z" fill="#0066FF" stroke-linecap="round" stroke-linejoin="miter"></path></svg>